#!OML:ASF H:\MichaelJackson\Top Level 1\Subject 1\Session 1\male.ASF
:FULLY-SPECIFIED
:DEGREES
731
root 5.23338 16.6424 28.0677 -184.122 -87.4439 -164.013
lowerback 4.77949 4.32455 2.57139
upperback 1.90728 5.83426 0.41816
thorax -0.493607 2.90779 -1.28952
lowerneck -10.0023 2.71173 5.59316
upperneck 14.8926 3.84388 -7.28719
head 6.41504 1.55641 -2.93059
rclavicle -1.47101e-014 -7.95139e-015
rhumerus -23.947 -20.7856 -85.6383
rradius 66.6303
rwrist -13.1372
rhand -54.6226 -55.7054
rfingers 7.12502
rthumb -27.0191 -443.793
lclavicle -1.47101e-014 -7.95139e-015
lhumerus 16.1539 -1.613 62.5922
lradius 112.389
lwrist -20.8505
lhand -53.9518 13.4974
lfingers 7.12502
lthumb -26.3772 41.6827
rfemur -10.6234 8.71953 24.6448
rtibia 34.7388
rfoot -19.0125 24.7477
rtoes 39.9187
lfemur -47.5356 -12.8087 -12.4191
ltibia 37.5711
lfoot -4.16171 -12.3843
ltoes 7.24651
732
root 5.37525 16.6571 28.0877 -204.205 -88.853 -143.757
lowerback 4.94501 4.40915 2.858
upperback 1.96545 5.96145 0.498527
thorax -0.499491 2.97132 -1.38096
lowerneck -10.0146 2.69387 5.6814
upperneck 14.6887 3.81805 -7.39513
head 6.35444 1.54493 -2.98043
rclavicle -3.53837e-014 -1.11319e-014
rhumerus -24.3218 -20.594 -85.2595
rradius 65.908
rwrist -13.6282
rhand -53.9963 -55.5307
rfingers 7.12502
rthumb -26.4198 -443.71
lclavicle -3.53837e-014 -1.11319e-014
lhumerus 15.9974 -2.23286 62.7131
lradius 112.652
lwrist -21.2282
lhand -54.3483 12.6507
lfingers 7.12502
lthumb -26.7567 40.7785
rfemur -10.9087 7.16257 24.7532
rtibia 34.0437
rfoot -19.9898 24.2421
rtoes 38.8147
lfemur -47.7919 -11.8893 -13.4777
ltibia 37.3343
lfoot -3.13666 -13.6466
ltoes 8.95764
733
root 5.51464 16.6669 28.1053 -121.917 -90.8624 -225.885
lowerback 5.09295 4.48754 3.069
upperback 2.01736 6.07756 0.564346
thorax -0.507978 3.02919 -1.44436
lowerneck -10.0437 2.68757 5.78577
upperneck 14.5315 3.80104 -7.47162
head 6.31193 1.53994 -3.02225
rclavicle 2.78299e-014 1.59028e-015
rhumerus -24.6693 -20.3986 -84.9464
rradius 65.1931
rwrist -13.9482
rhand -53.31 -55.2346
rfingers 7.12502
rthumb -25.7626 -443.511
lclavicle 2.78299e-014 1.59028e-015
lhumerus 15.79 -2.95878 62.7941
lradius 112.881
lwrist -21.6391
lhand -54.6802 11.908
lfingers 7.12502
lthumb -27.0742 39.9869
rfemur -11.263 5.66384 24.8495
rtibia 33.5348
rfoot -20.9154 23.7201
rtoes 37.7928
lfemur -48.0138 -11.2253 -14.4041
ltibia 37.3184
lfoot -2.41572 -14.8139
ltoes 10.5206
734
root 5.65155 16.6724 28.1203 -152.726 -92.1858 -194.931
lowerback 5.22238 4.56005 3.21636
upperback 2.06342 6.18318 0.639612
thorax -0.519951 3.0815 -1.46183
lowerneck -10.076 2.69481 5.88524
upperneck 14.4039 3.80106 -7.53031
head 6.28015 1.54362 -3.05623
rclavicle -5.50634e-014 2.06736e-014
rhumerus -24.9963 -20.1851 -84.6791
rradius 64.4939
rwrist -14.0824
rhand -52.5543 -54.8229
rfingers 7.12502
rthumb -25.0388 -443.202
lclavicle -5.50634e-014 2.06736e-014
lhumerus 15.5217 -3.76397 62.862
lradius 113.082
lwrist -22.0718
lhand -54.9435 11.199
lfingers 7.12502
lthumb -27.3262 39.2385
rfemur -11.6856 4.23984 24.9824
rtibia 33.2114
rfoot -21.8037 23.1029
rtoes 36.7608
lfemur -48.2044 -10.9399 -15.0407
ltibia 37.5208
lfoot -2.08134 -15.8691
ltoes 11.8181
735
root 5.78646 16.6739 28.1332 -159.467 -93.6334 -188.065
lowerback 5.36324 4.62978 3.33028
upperback 2.09977 6.28476 0.701196
thorax -0.550258 3.13142 -1.47657
lowerneck -10.1032 2.71005 5.98628
upperneck 14.2835 3.80831 -7.56612
head 6.24994 1.5525 -3.08254
rclavicle -5.12864e-014 -3.4191e-014
rhumerus -25.3092 -19.9832 -84.4774
rradius 63.814
rwrist -14.0186
rhand -51.7354 -54.302
rfingers 7.12502
rthumb -24.2538 -442.788
lclavicle -5.12864e-014 -3.4191e-014
lhumerus 15.1935 -4.66087 62.9078
lradius 113.269
lwrist -22.4982
lhand -55.1233 10.5162
lfingers 7.12502
lthumb -27.4981 38.5285
rfemur -12.1718 2.89799 25.154
rtibia 33.0668
rfoot -22.6535 22.344
rtoes 35.6445
lfemur -48.3636 -11.0913 -15.3251
ltibia 37.9407
lfoot -2.18587 -16.7896
ltoes 12.7446
736
root 5.91945 16.6721 28.1444 -161.934 -95.0663 -185.49
lowerback 5.51015 4.69167 3.39022
upperback 2.12923 6.37426 0.794002
thorax -0.600955 3.1744 -1.43091
lowerneck -10.1081 2.74084 6.04309
upperneck 14.1514 3.84521 -7.6104
head 6.2137 1.57294 -3.1017
rclavicle -7.31528e-014 5.56597e-015
rhumerus -25.6162 -19.6972 -84.2927
rradius 63.1558
rwrist -13.794
rhand -50.8673 -53.67
rfingers 7.12502
rthumb -23.4213 -442.265
lclavicle -7.31528e-014 5.56597e-015
lhumerus 14.7649 -5.59254 62.9847
lradius 113.448
lwrist -22.8948
lhand -55.2557 9.75181
lfingers 7.12502
lthumb -27.6247 37.7438
rfemur -12.7196 1.6426 25.3866
rtibia 33.0827
rfoot -23.4468 21.4444
rtoes 34.4425
lfemur -48.5076 -11.6471 -15.2301
ltibia 38.5872
lfoot -2.7386 -17.5647
ltoes 13.282
